<svg xmlns="http://www.w3.org/2000/svg" xmlns:xlink="http://www.w3.org/1999/xlink">
  <!-- static icon -->
  <symbol id="cloud" viewBox="0 0 18 12" fill="#C5D2FF" stroke="none">
    <path fill-rule="evenodd" clip-rule="evenodd" d="M9 10.028C8.04906 10.8133 6.82963 11.2852 5.5 11.2852C2.46243 11.2852 0 8.82272 0 5.78516C0 2.74759 2.46243 0.285156 5.5 0.285156C6.82963 0.285156 8.04906 0.756974 9 1.54232C9.95094 0.756974 11.1704 0.285156 12.5 0.285156C15.5376 0.285156 18 2.74759 18 5.78516C18 8.82272 15.5376 11.2852 12.5 11.2852C11.1704 11.2852 9.95094 10.8133 9 10.028Z" fill="url(#paint0_radial_946_17410)"/>
    <defs>
      <radialGradient id="paint0_radial_946_17410" cx="0" cy="0" r="1" gradientUnits="userSpaceOnUse" gradientTransform="translate(14.0112 6.76192) rotate(93.8) scale(13.168 21.6502)">
        <stop offset="0.29142" stop-color="#C5D2FF"/>
        <stop offset="1" stop-color="#82B5FF"/>
      </radialGradient>
    </defs>
  </symbol>
  <symbol id="calendar-next" viewBox="0 0 11 18" fill="none" stroke="none" >
    <path d="M2 16L9 9L2 2" stroke="white" stroke-width="2.5" stroke-linecap="round" stroke-linejoin="round"/>
  </symbol>
  <symbol id="calendar-prev" viewBox="0 0 11 18" fill="none" stroke="none" >
    <path d="M9 16L2 9L9 2" stroke="white" stroke-width="2.5" stroke-linecap="round" stroke-linejoin="round"/>
  </symbol>
  <symbol id="check" viewBox="0 0 16 14" fill="none" stroke="none">
    <path d="M1 7.57666L5.76908 12.5L15 1.5" stroke="#00368E" stroke-width="1.7" stroke-linecap="round" stroke-linejoin="round"/>
  </symbol>
  <symbol id="check-thick" viewBox="0 0 24 25" fill="none" stroke="none">
    <path d="M3 14.2353L9.13167 20.949L21 5.94897" stroke="#898989" stroke-width="3" stroke-linecap="round" stroke-linejoin="round"/>
  </symbol>
  <symbol id="checkbox-blue" viewBox="0 0 20 20" fill="none" stroke="none">
    <circle cx="10" cy="10" r="10" fill="#DDEBF6"/>
    <path d="M5 10.7832L8.46842 14.3638L15.1818 6.36377" stroke="#5F86BF" stroke-width="1.54545" stroke-linecap="round" stroke-linejoin="round"/>
  </symbol>
  <symbol id="checkbox-grey" viewBox="0 0 20 20" fill="none" stroke="none">
    <circle cx="10" cy="10" r="10" fill="#F4F4F4"/>
    <path d="M5 10.7832L8.46842 14.3638L15.1818 6.36377" stroke="#D9D9D9" stroke-width="1.54545" stroke-linecap="round" stroke-linejoin="round"/>
  </symbol>
  <symbol id="chevron-right" viewBox="0 0 25 24" fill="none" stroke="none">
    <path fill-rule="evenodd" clip-rule="evenodd" d="M16.8057 12C16.8057 12.2196 16.7178 12.4292 16.5635 12.5775L9.05477 19.7946C8.75103 20.0865 8.27938 20.0647 8.00132 19.7457C7.72326 19.4268 7.74408 18.9316 8.04782 18.6397L14.9558 12L8.04783 5.36033C7.74408 5.06838 7.72326 4.57317 8.00132 4.25426C8.27938 3.93534 8.75103 3.91348 9.05477 4.20543L16.5635 11.4225C16.7178 11.5708 16.8057 11.7804 16.8057 12Z" fill="#898989"/>
  </symbol>
  <symbol id="angle-up-blue" viewBox="0 0 8 5" fill="none" stroke="none">
    <path fill-rule="evenodd" clip-rule="evenodd" d="M0.121048 3.8976C-0.0390477 3.75992 -0.0405293 3.53538 0.117738 3.39607L3.97606 -8.81703e-08L7.87895 3.35639C8.03905 3.49407 8.04053 3.71861 7.88226 3.85792C7.72399 3.99722 7.46591 3.99854 7.30581 3.86086L3.98268 1.00305L0.697495 3.89465C0.539228 4.03396 0.281143 4.03528 0.121048 3.8976Z" fill="#00368E"/>
  </symbol>
  <symbol id="angle-down-blue" viewBox="0 0 8 5" fill="none" stroke="none">
    <path fill-rule="evenodd" clip-rule="evenodd" d="M7.87895 0.602402C8.03905 0.74008 8.04053 0.96462 7.88226 1.10393L4.02394 4.5L0.121048 1.14361C-0.0390477 1.00593 -0.0405295 0.78139 0.117738 0.642084C0.276005 0.502778 0.53409 0.501458 0.694185 0.639137L4.01732 3.49695L7.30251 0.605349C7.46077 0.466043 7.71886 0.464723 7.87895 0.602402Z" fill="#00368E"/>
  </symbol>
  <symbol id="angle-down" viewBox="0 0 24 24" fill="none" stroke="none">
    <path fill-rule="evenodd" clip-rule="evenodd" d="M12 16.5C11.7804 16.5 11.5708 16.4121 11.4225 16.2578L4.20543 8.74911C3.91348 8.44536 3.93534 7.97371 4.25426 7.69565C4.57318 7.41759 5.06838 7.43841 5.36033 7.74216L12 14.6501L18.6397 7.74216C18.9316 7.43842 19.4268 7.41759 19.7457 7.69565C20.0647 7.97371 20.0865 8.44536 19.7946 8.74911L12.5775 16.2578C12.4292 16.4121 12.2196 16.5 12 16.5Z" fill="#898989"/>
  </symbol>
  <symbol id="angle-right" viewBox="0 0 16 16" fill="none" stroke="none">
    <path fill-rule="evenodd" clip-rule="evenodd" d="M11 8.10938C11 8.24965 10.9412 8.38347 10.8379 8.47818L5.81049 13.0876C5.60712 13.274 5.29134 13.2601 5.10517 13.0564C4.91899 12.8527 4.93293 12.5364 5.1363 12.3499L9.76143 8.10938L5.1363 3.86881C4.93293 3.68235 4.91899 3.36607 5.10517 3.16239C5.29134 2.9587 5.60712 2.94474 5.81049 3.1312L10.8379 7.74058C10.9412 7.83529 11 7.96911 11 8.10938Z" fill="currentColor"/>
  </symbol>
  <symbol id="arrow-up-right" viewBox="0 0 32 32" fill="none" stroke="none">
    <path fill-rule="evenodd" clip-rule="evenodd" d="M24.2787 7.99146C24.2766 7.30403 23.7199 6.74727 23.0325 6.74521L10.6148 6.70798C9.92444 6.70591 9.36312 7.26388 9.36105 7.95423C9.35898 8.64458 9.91695 9.2059 10.6073 9.20797L20.0205 9.23619L7.11178 22.1449C6.62363 22.6331 6.62363 23.4245 7.11178 23.9127C7.59994 24.4008 8.39139 24.4008 8.87955 23.9127L21.7877 11.0045L21.8159 20.4166C21.818 21.107 22.3793 21.6649 23.0697 21.6629C23.76 21.6608 24.318 21.0995 24.3159 20.4091L24.2787 7.99146Z" fill="#00368E"/>
  </symbol>
  <symbol id="arrow-down" viewBox="0 0 11 6" stroke="none">
    <path fill-rule="evenodd" clip-rule="evenodd" d="M5.21875 6C5.08148 6 4.95053 5.94142 4.85784 5.83856L0.347142 0.832738C0.164673 0.630241 0.178338 0.315809 0.377661 0.130436C0.576984 -0.0549387 0.886488 -0.041057 1.06896 0.161441L5.21875 4.76674L9.36854 0.161441C9.55101 -0.0410562 9.86052 -0.0549379 10.0598 0.130436C10.2592 0.31581 10.2728 0.630242 10.0904 0.832739L5.57966 5.83856C5.48697 5.94142 5.35602 6 5.21875 6Z" />
  </symbol>
  <symbol id="pencil" viewBox="0 0 15 17" fill="current" stroke="none">
    <rect width="6" height="10" rx="1" transform="matrix(-0.776331 -0.630326 0.62432 -0.781169 5.88184 14.3457)"/>
    <rect width="6" height="2" rx="1" transform="matrix(-0.776331 -0.630326 0.62432 -0.781169 12.8823 5.34375)"/>
    <path d="M2.73799 14.7733C2.27205 14.7713 1.86917 14.4442 1.76805 13.9857L1.24882 11.6317L5.13048 14.7834L2.73799 14.7733Z"/>
  </symbol>
  <symbol id="pencil-blue" width="19" height="21" viewBox="0 0 19 21" fill="none" stroke="none">
    <path d="M3.71143 18.9779C2.99913 18.9749 2.38324 18.4748 2.22865 17.7739L1.60394 14.9417L6.58998 18.99L3.71143 18.9779Z" fill="#5F86BF"/>
    <rect width="7.70711" height="2.56904" rx="1.28452" transform="matrix(-0.776328 -0.630329 0.624317 -0.781171 16.5469 6.86487)" fill="#5F86BF"/>
    <rect width="7.70711" height="12.8452" rx="1.52874" transform="matrix(-0.776328 -0.630329 0.624317 -0.781171 7.55542 18.4267)" fill="#5F86BF"/>
  </symbol>
  <symbol id="file" viewBox="0 0 10 14" fill="none" stroke="none">
    <path d="M6.25 0H1.25C0.5625 0 0.00625014 0.63 0.00625014 1.4L0 12.6C0 13.37 0.55625 14 1.24375 14H8.75C9.4375 14 10 13.37 10 12.6V4.2L6.25 0ZM1.25 12.6V1.4H5.625V4.9H8.75V12.6H1.25Z" fill="#00368E"/>
  </symbol>
  <symbol id="notice-bell-blue" viewBox="0 0 13 16" fill="none" stroke="none">
    <path opacity="0.7" d="M0.86673 7.41068C0.86673 4.29947 3.38886 1.77734 6.50006 1.77734C9.61127 1.77734 12.1334 4.29947 12.1334 7.41068V9.85815C12.1334 10.3044 11.7716 10.6662 11.3253 10.6662H1.67481C1.22852 10.6662 0.86673 10.3044 0.86673 9.85815V7.41068Z" fill="#5F86BF"/>
    <rect opacity="0.5" y="10.667" width="13" height="2.66667" rx="1.33333" fill="#5F86BF"/>
    <rect x="5.20004" y="13.334" width="2.6" height="2.66667" rx="1.3" fill="#5F86BF"/>
    <rect x="5.20004" width="2.6" height="2.66667" rx="1.3" fill="#5F86BF"/>
  </symbol>
  <symbol id="setting" viewBox="0 0 24 24" fill="none" stroke="none">
    <path d="M16.3076 4.38409C15.7176 4.38409 15.4216 4.38409 15.1526 4.28409L15.0416 4.23809C14.7806 4.11809 14.5716 3.91009 14.1536 3.49209C13.1916 2.53009 12.7106 2.04909 12.1196 2.00409C12.0397 1.99929 11.9595 1.99929 11.8796 2.00409C11.2886 2.04909 10.8076 2.53009 9.8456 3.49209C9.4276 3.91009 9.2186 4.11909 8.9576 4.23809L8.8476 4.28409C8.5776 4.38409 8.2826 4.38409 7.6916 4.38409H7.5816C6.0746 4.38409 5.3206 4.38409 4.8516 4.85209C4.3826 5.32009 4.3836 6.07509 4.3836 7.58209V7.69209C4.3836 8.28209 4.3836 8.57809 4.2836 8.84709C4.26894 8.88509 4.2536 8.92209 4.2376 8.95809C4.1176 9.21909 3.9096 9.42809 3.4916 9.84609C2.5296 10.8081 2.0486 11.2891 2.0036 11.8801C1.9988 11.96 1.9988 12.0402 2.0036 12.1201C2.0486 12.7111 2.5296 13.1921 3.4916 14.1541C3.9096 14.5721 4.1186 14.7811 4.2376 15.0421C4.25427 15.0781 4.2696 15.1148 4.2836 15.1521C4.3836 15.4221 4.3836 15.7171 4.3836 16.3081V16.4181C4.3836 17.9251 4.3836 18.6791 4.8516 19.1481C5.3196 19.6171 6.0746 19.6161 7.5816 19.6161H7.6916C8.2816 19.6161 8.5776 19.6161 8.8466 19.7161C8.8846 19.7301 8.9216 19.7454 8.9576 19.7621C9.2186 19.8821 9.4276 20.0901 9.8456 20.5081C10.8076 21.4701 11.2886 21.9511 11.8796 21.9961C11.9596 22.0021 12.0396 22.0021 12.1196 21.9961C12.7106 21.9511 13.1916 21.4701 14.1536 20.5081C14.5716 20.0901 14.7806 19.8821 15.0416 19.7621C15.0776 19.7454 15.1143 19.7301 15.1516 19.7161C15.4216 19.6161 15.7166 19.6161 16.3076 19.6161H16.4176C17.9246 19.6161 18.6786 19.6161 19.1476 19.1481C19.6166 18.6801 19.6156 17.9251 19.6156 16.4181V16.3081C19.6156 15.7181 19.6156 15.4221 19.7156 15.1531C19.7296 15.1151 19.7449 15.0781 19.7616 15.0421C19.8816 14.7811 20.0896 14.5721 20.5076 14.1541C21.4696 13.1921 21.9506 12.7111 21.9956 12.1201C22.0016 12.0401 22.0016 11.9601 21.9956 11.8801C21.9506 11.2891 21.4696 10.8081 20.5076 9.84609C20.0896 9.42809 19.8816 9.21909 19.7616 8.95809L19.7156 8.84809C19.6156 8.57809 19.6156 8.28309 19.6156 7.69209V7.58209C19.6156 6.07509 19.6156 5.32109 19.1476 4.85209C18.6796 4.38309 17.9246 4.38409 16.4176 4.38409H16.3076Z" stroke="#00368E" stroke-width="1.85" stroke-linecap="round" stroke-linejoin="round"/>
    <path d="M15.5 12C15.5 12.4596 15.4095 12.9148 15.2336 13.3394C15.0577 13.764 14.7999 14.1499 14.4749 14.4749C14.1499 14.7999 13.764 15.0577 13.3394 15.2336C12.9148 15.4095 12.4596 15.5 12 15.5C11.5404 15.5 11.0852 15.4095 10.6606 15.2336C10.236 15.0577 9.85013 14.7999 9.52513 14.4749C9.20012 14.1499 8.94231 13.764 8.76642 13.3394C8.59053 12.9148 8.5 12.4596 8.5 12C8.5 11.0717 8.86875 10.1815 9.52513 9.52513C10.1815 8.86875 11.0717 8.5 12 8.5C12.9283 8.5 13.8185 8.86875 14.4749 9.52513C15.1313 10.1815 15.5 11.0717 15.5 12Z" stroke="#00368E" stroke-width="1.85" stroke-linecap="round" stroke-linejoin="round"/>
  </symbol>
  <symbol id="search" viewBox="0 0 14 15" fill="none" stroke="none">
    <path d="M9.93724 10.5109L13 13.6055M9.85198 3.12036C11.8954 5.15868 11.9165 8.48477 9.89912 10.5494C7.88176 12.614 4.58986 12.6353 2.54646 10.597C0.503064 8.5587 0.48196 5.23261 2.49932 3.16799C4.51669 1.10337 7.80859 1.08205 9.85198 3.12036Z" stroke="#898989" stroke-width="1" stroke-linecap="round"/>
  </symbol>
  <symbol id='search-thick' viewBox="0 0 20 20" fill="none" stroke="none">
    <path d="M13.9163 13.8739L18 18M13.8026 4.01986C16.5272 6.73762 16.5553 11.1724 13.8655 13.9252C11.1757 16.678 6.78648 16.7065 4.06195 13.9887C1.33742 11.271 1.30928 6.83619 3.9991 4.08336C6.68892 1.33054 11.0781 1.30211 13.8026 4.01986Z" stroke="#00368E" stroke-width="2.5" stroke-linecap="round"/>
  </symbol>
  <symbol id="nested-arrow" viewBox="0 0 12 13" fill="none" stroke="none">
    <path d="M11.6768 11.2588C11.7744 11.1612 11.7744 11.0029 11.6768 10.9053L10.0858 9.31426C9.98816 9.21663 9.82986 9.21663 9.73223 9.31426C9.6346 9.41189 9.6346 9.57019 9.73223 9.66782L11.1464 11.082L9.73223 12.4962C9.6346 12.5939 9.6346 12.7522 9.73223 12.8498C9.82986 12.9474 9.98816 12.9474 10.0858 12.8498L11.6768 11.2588ZM0.25 0.0820312V9.08203H0.75V0.0820312H0.25ZM2.5 11.332H11.5V10.832H2.5V11.332ZM0.25 9.08203C0.25 10.3247 1.25736 11.332 2.5 11.332V10.832C1.5335 10.832 0.75 10.0485 0.75 9.08203H0.25Z" fill="#898989"/>
  </symbol>
  <symbol id="star" viewBox="0 0 22 21">
    <path d="M9.39954 0.832929C9.75642 -0.277526 11.3276 -0.277525 11.6844 0.832931L13.4994 6.48021C13.5658 6.687 13.7582 6.82723 13.9754 6.82723H19.8813C21.0406 6.82723 21.526 8.30806 20.5917 8.99435L15.7977 12.5158C15.6244 12.6431 15.5519 12.867 15.6177 13.0717L17.4426 18.7499C17.7986 19.8578 16.5276 20.7731 15.5897 20.0842L10.838 16.5938C10.6619 16.4644 10.4221 16.4644 10.246 16.5938L5.49429 20.0842C4.55642 20.7731 3.28538 19.8578 3.64143 18.7499L5.46627 13.0717C5.53207 12.867 5.45957 12.6431 5.28625 12.5158L0.492269 8.99435C-0.442038 8.30806 0.0433884 6.82723 1.20267 6.82723H7.10861C7.32582 6.82723 7.51818 6.687 7.58463 6.48021L9.39954 0.832929Z"/>
  </symbol>
  <symbol id="comment-circle" viewBox="0 0 32 32" fill="none" stroke="none">
    <circle cx="16" cy="16" r="15" stroke="#00368E" stroke-width="2"/>
    <path fill-rule="evenodd" clip-rule="evenodd" d="M26 10C26 9.44772 25.5523 9 25 9H8C7.44772 9 7 9.44771 7 10V20.3086V20.3095V23.7754C7 24.6663 8.07714 25.1125 8.70711 24.4825L12.5872 20.6024C12.7748 20.4149 13.0291 20.3095 13.2943 20.3095H25C25.5523 20.3095 26 19.8618 26 19.3095V10Z" fill="#00368E"/>
  </symbol>
  <symbol id="point-circle" viewBox="0 0 32 32" fill="none" stroke="none">
    <path d="M16.4709 8C17.3865 8 18.242 8.08649 19.0375 8.25946C19.833 8.41802 20.5235 8.69189 21.1088 9.08108C21.6942 9.47027 22.152 9.98919 22.4822 10.6378C22.8274 11.2721 23 12.0649 23 13.0162C23 13.9243 22.8274 14.7171 22.4822 15.3946C22.152 16.0577 21.6942 16.6054 21.1088 17.0378C20.5385 17.4703 19.863 17.7946 19.0826 18.0108C18.3021 18.2126 17.4615 18.3135 16.561 18.3135H14.3321V24H11V8H16.4709ZM16.3358 15.7838C18.6023 15.7838 19.7355 14.8613 19.7355 13.0162C19.7355 12.0793 19.4353 11.4306 18.8349 11.0703C18.2495 10.7099 17.379 10.5297 16.2233 10.5297H14.3321V15.7838H16.3358Z" fill="#00368E"/>
    <circle cx="16" cy="16" r="15" stroke="#00368E" stroke-width="2"/>
  </symbol>
  <symbol id="middle-dot" viewBox="0 0 5 5" fill="none" stroke="none">
    <ellipse cx="2.49987" cy="2.50049" rx="1.5194" ry="1.52002" fill="#484848"/>
  </symbol>
  <symbol id="check-circle-grey" width="22" height="22" viewBox="0 0 22 22" fill="none" stroke="none">
   <circle cx="10.5332" cy="10.8418" r="10.5" fill="white"/>
   <path d="M5.5332 12.2032L9.34846 16.1419L16.7332 7.34186" stroke="#D9D9D9" stroke-width="1.7" stroke-linecap="round" stroke-linejoin="round"/>
  </symbol>
  <symbol id="check-circle-blue" width="21" height="22" viewBox="0 0 21 22" fill="none" stroke="none">
    <circle cx="10.5" cy="11.3418" r="10.5" fill="#BFD7EC"/>
    <path d="M5 12.4031L8.81526 16.3418L16.2 7.54181" stroke="#5F86BF" stroke-width="1.5" stroke-linecap="round" stroke-linejoin="round"/>
  </symbol>


  <!-- fill icon -->
  <symbol id="clip-board-list" viewBox="0 0 18 19" fill="none" stroke="none">
    <rect y="1" width="18" height="18" rx="2" fill="#BFD7EC"/>
    <rect x="3" y="6" width="12" height="1" rx="0.5" fill="#5F86BF"/>
    <rect x="5.5" width="7" height="2" rx="1" fill="#5F86BF"/>
    <rect x="3" y="9.5" width="12" height="1" rx="0.5" fill="#5F86BF"/>
    <rect x="3" y="13" width="12" height="1" rx="0.5" fill="#5F86BF"/>
  </symbol>

  <!-- stroke icon -->
  <symbol id="share" viewBox="0 0 18 19" fill="none" stroke="none">
    <path d="M13.9995 4L3.49951 9.5L13.9995 15.5" stroke="#898989" stroke-width="2" stroke-linecap="round" stroke-linejoin="round"/>
    <circle cx="14.5" cy="3.5" r="3.5" fill="#AAD916"/>
    <circle cx="14.5" cy="15.5" r="3.5" fill="#AAD916"/>
    <circle cx="3.5" cy="9.5" r="3.5" fill="#AAD916"/>
  </symbol>

  <!-- 일러스트 -->
  <symbol id="star-no-comment" viewBox="0 0 220 183" fill="none" stroke="none">
    <path d="M32.8458 45.1477C33.4305 28.2181 51.4896 17.7565 66.3941 25.7132L77.7738 31.7882C84.4796 35.3681 92.5204 35.3681 99.2262 31.7882L110.606 25.7132C125.51 17.7565 143.57 28.2181 144.154 45.1477L144.601 58.0736C144.864 65.6905 148.884 72.6776 155.327 76.7146L166.26 83.5655C180.58 92.5384 180.58 113.462 166.26 122.435L155.327 129.285C148.884 133.322 144.864 140.31 144.601 147.926L144.154 160.852C143.57 177.782 125.51 188.244 110.606 180.287L99.2262 174.212C92.5204 170.632 84.4796 170.632 77.7738 174.212L66.3941 180.287C51.4896 188.244 33.4305 177.782 32.8458 160.852L32.3993 147.926C32.1363 140.31 28.1158 133.322 21.6731 129.285L10.7399 122.435C-3.57996 113.462 -3.57995 92.5384 10.7399 83.5655L21.6732 76.7146C28.1158 72.6776 32.1363 65.6905 32.3993 58.0736L32.8458 45.1477Z" fill="url(#paint0_radial_1929_9993)"/>
    <path d="M68.311 82.5H108.689C111.45 82.5 113.689 84.7386 113.689 87.5V109.34C113.689 110.691 113.143 111.984 112.174 112.925L96.2371 128.42C94.9693 129.652 92.843 128.754 92.843 126.986V116.452C92.843 113.691 90.6044 111.452 87.843 111.452H68.311C65.5496 111.452 63.311 109.214 63.311 106.452V87.5C63.311 84.7386 65.5496 82.5 68.311 82.5Z" fill="white"/>
    <path fill-rule="evenodd" clip-rule="evenodd" d="M211.388 2.00353C213.341 0.0509071 216.507 0.0509071 218.459 2.00353C220.412 3.95615 220.412 7.12197 218.459 9.0746L204.533 23.001L218.459 36.9274C220.412 38.88 220.412 42.0458 218.459 43.9984C216.507 45.951 213.341 45.951 211.388 43.9984L197.462 30.072L183.536 43.9984C181.583 45.951 178.417 45.951 176.464 43.9984C174.512 42.0458 174.512 38.88 176.464 36.9274L190.391 23.001L176.464 9.0746C174.512 7.12197 174.512 3.95615 176.464 2.00353C178.417 0.0509071 181.583 0.0509071 183.536 2.00353L197.462 15.9299L211.388 2.00353Z" fill="url(#paint1_radial_1929_9993)"/>
    <defs>
      <radialGradient id="paint0_radial_1929_9993" cx="0" cy="0" r="1" gradientUnits="userSpaceOnUse" gradientTransform="translate(137.777 117.207) rotate(92.571) scale(191.305 213.148)">
        <stop offset="0.29142" stop-color="#C5D2FF"/>
        <stop offset="1" stop-color="#82B5FF"/>
      </radialGradient>
      <radialGradient id="paint1_radial_1929_9993" cx="0" cy="0" r="1" gradientUnits="userSpaceOnUse" gradientTransform="translate(209.969 26.9901) rotate(92.3244) scale(53.7037 54.1084)">
        <stop offset="0.29142" stop-color="#C5D2FF"/>
        <stop offset="1" stop-color="#82B5FF"/>
      </radialGradient>
    </defs>
  </symbol>
  <symbol id="star-no-post" viewBox="0 0 220 183" fill="none" stroke="none">
    <path d="M32.8458 45.1477C33.4305 28.2181 51.4896 17.7565 66.3941 25.7132L77.7738 31.7882C84.4796 35.3681 92.5204 35.3681 99.2262 31.7882L110.606 25.7132C125.51 17.7565 143.57 28.2181 144.154 45.1477L144.601 58.0736C144.864 65.6905 148.884 72.6776 155.327 76.7146L166.26 83.5655C180.58 92.5384 180.58 113.462 166.26 122.435L155.327 129.285C148.884 133.322 144.864 140.31 144.601 147.926L144.154 160.852C143.57 177.782 125.51 188.244 110.606 180.287L99.2262 174.212C92.5204 170.632 84.4796 170.632 77.7738 174.212L66.3941 180.287C51.4896 188.244 33.4305 177.782 32.8458 160.852L32.3993 147.926C32.1363 140.31 28.1158 133.322 21.6731 129.285L10.7399 122.435C-3.57996 113.462 -3.57995 92.5384 10.7399 83.5655L21.6732 76.7146C28.1158 72.6776 32.1363 65.6905 32.3993 58.0736L32.8458 45.1477Z" fill="url(#paint0_radial_1929_9992)"/>
    <path d="M62.5 87H114.5" stroke="white" stroke-width="6" stroke-linecap="round"/>
    <path fill-rule="evenodd" clip-rule="evenodd" d="M211.388 2.00353C213.341 0.050907 216.507 0.050907 218.459 2.00353C220.412 3.95615 220.412 7.12197 218.459 9.0746L204.533 23.001L218.459 36.9274C220.412 38.88 220.412 42.0458 218.459 43.9984C216.507 45.951 213.341 45.951 211.388 43.9984L197.462 30.072L183.536 43.9984C181.583 45.951 178.417 45.951 176.464 43.9984C174.512 42.0458 174.512 38.88 176.464 36.9274L190.391 23.001L176.464 9.0746C174.512 7.12197 174.512 3.95615 176.464 2.00353C178.417 0.050907 181.583 0.050907 183.536 2.00353L197.462 15.9299L211.388 2.00353Z" fill="url(#paint1_radial_1929_9992)"/>
    <path d="M62.5 103H114.5" stroke="white" stroke-width="6" stroke-linecap="round"/>
    <path d="M62.5 119H114.5" stroke="white" stroke-width="6" stroke-linecap="round"/>
    <defs>
      <radialGradient id="paint0_radial_1929_9992" cx="0" cy="0" r="1" gradientUnits="userSpaceOnUse" gradientTransform="translate(137.777 117.207) rotate(92.571) scale(191.305 213.148)">
        <stop offset="0.29142" stop-color="#C5D2FF"/>
        <stop offset="1" stop-color="#82B5FF"/>
      </radialGradient>
      <radialGradient id="paint1_radial_1929_9992" cx="0" cy="0" r="1" gradientUnits="userSpaceOnUse" gradientTransform="translate(209.969 26.9901) rotate(92.3244) scale(53.7037 54.1084)">
        <stop offset="0.29142" stop-color="#C5D2FF"/>
        <stop offset="1" stop-color="#82B5FF"/>
      </radialGradient>
    </defs>
  </symbol>
  <symbol id="star-no-review" viewBox="0 0 220 183" fill="none" stroke="none">
    <path d="M32.8458 45.1477C33.4305 28.2181 51.4896 17.7565 66.3941 25.7132L77.7738 31.7882C84.4796 35.3681 92.5204 35.3681 99.2262 31.7882L110.606 25.7132C125.51 17.7565 143.57 28.2181 144.154 45.1477L144.601 58.0736C144.864 65.6905 148.884 72.6776 155.327 76.7146L166.26 83.5655C180.58 92.5384 180.58 113.462 166.26 122.435L155.327 129.285C148.884 133.322 144.864 140.31 144.601 147.926L144.154 160.852C143.57 177.782 125.51 188.244 110.606 180.287L99.2262 174.212C92.5204 170.632 84.4796 170.632 77.7738 174.212L66.3941 180.287C51.4896 188.244 33.4305 177.782 32.8458 160.852L32.3993 147.926C32.1363 140.31 28.1158 133.322 21.6731 129.285L10.7399 122.435C-3.57996 113.462 -3.57995 92.5384 10.7399 83.5655L21.6732 76.7146C28.1158 72.6776 32.1363 65.6905 32.3993 58.0736L32.8458 45.1477Z" fill="url(#paint0_radial_1924_9854)"/>
    <path fill-rule="evenodd" clip-rule="evenodd" d="M211.388 2.00353C213.341 0.050907 216.507 0.050907 218.459 2.00353C220.412 3.95615 220.412 7.12197 218.459 9.0746L204.533 23.001L218.459 36.9274C220.412 38.88 220.412 42.0458 218.459 43.9984C216.507 45.951 213.341 45.951 211.388 43.9984L197.462 30.072L183.536 43.9984C181.583 45.951 178.417 45.951 176.464 43.9984C174.512 42.0458 174.512 38.88 176.464 36.9274L190.391 23.001L176.464 9.0746C174.512 7.12197 174.512 3.95615 176.464 2.00353C178.417 0.050907 181.583 0.050907 183.536 2.00353L197.462 15.9299L211.388 2.00353Z" fill="url(#paint1_radial_1924_9854)"/>
    <rect width="25.0991" height="41.8318" rx="3" transform="matrix(-0.707107 -0.707107 0.701633 -0.712539 82.4722 126.602)" fill="white"/>
    <rect width="25.0991" height="8.36635" rx="3" transform="matrix(-0.707107 -0.707107 0.701633 -0.712539 116.112 92.7793)" fill="white"/>
    <path d="M65.5765 126.005C65.3449 125.98 65.1614 125.797 65.1348 125.564L63.8178 114.028C63.764 113.556 64.3292 113.28 64.6634 113.614L77.4374 126.388C77.7716 126.722 77.5016 127.294 77.0335 127.243L65.5765 126.005Z" fill="white"/>
    <defs>
      <radialGradient id="paint0_radial_1924_9854" cx="0" cy="0" r="1" gradientUnits="userSpaceOnUse" gradientTransform="translate(137.777 117.207) rotate(92.571) scale(191.305 213.148)">
        <stop offset="0.29142" stop-color="#C5D2FF"/>
        <stop offset="1" stop-color="#82B5FF"/>
      </radialGradient>
      <radialGradient id="paint1_radial_1924_9854" cx="0" cy="0" r="1" gradientUnits="userSpaceOnUse" gradientTransform="translate(209.969 26.9901) rotate(92.3244) scale(53.7037 54.1084)">
        <stop offset="0.29142" stop-color="#C5D2FF"/>
        <stop offset="1" stop-color="#82B5FF"/>
      </radialGradient>
    </defs>
  </symbol>
  <symbol id="video-opaque" width="40" height="39" viewBox="0 0 40 39" fill="none" xmlns="http://www.w3.org/2000/svg">
    <circle cx="20.1599" cy="19.4116" r="18.48" fill="#EAF5FD" fill-opacity="0.5" stroke="#EAF5FD" stroke-width="1.8"/>
    <path d="M25.8533 17.9576C26.9733 18.6043 26.9733 20.2208 25.8533 20.8675L18.5733 25.0706C17.4533 25.7172 16.0533 24.9089 16.0533 23.6157L16.0533 15.2094C16.0533 13.9162 17.4533 13.1079 18.5733 13.7545L25.8533 17.9576Z" fill="#EAF5FD"/>
  </symbol>
  <symbol id="trashcan" viewBox="0 0 101 100" fill="none" stroke="white">
    <g clip-path="url(#clip0_4991_10310)">
    <g filter="url(#filter0_d_4991_10310)">
    <circle cx="50.5" cy="50" r="45" fill="white"/>
    </g>
    <rect x="41.4043" y="45.5117" width="18.1915" height="16.456" rx="1.5" fill="#FF849A"/>
    <path fill-rule="evenodd" clip-rule="evenodd" d="M52.7742 38.7792C52.7742 38.3661 52.4393 38.0312 52.0262 38.0312H48.9743C48.5612 38.0312 48.2263 38.3661 48.2263 38.7792C48.2263 39.1924 47.8914 39.5272 47.4783 39.5272H42.9003C42.0741 39.5272 41.4043 40.197 41.4043 41.0232C41.4043 41.8495 42.0741 42.5192 42.9003 42.5192H58.0998C58.926 42.5192 59.5958 41.8495 59.5958 41.0232C59.5958 40.197 58.926 39.5272 58.0998 39.5272H53.5222C53.1091 39.5272 52.7742 39.1924 52.7742 38.7792Z" fill="#FF849A"/>
    </g>
    <defs>
    <filter id="filter0_d_4991_10310" x="-12.5" y="-13" width="126" height="126" filterUnits="userSpaceOnUse" color-interpolation-filters="sRGB">
    <feFlood flood-opacity="0" result="BackgroundImageFix"/>
    <feColorMatrix in="SourceAlpha" type="matrix" values="0 0 0 0 0 0 0 0 0 0 0 0 0 0 0 0 0 0 127 0" result="hardAlpha"/>
    <feOffset/>
    <feGaussianBlur stdDeviation="9"/>
    <feComposite in2="hardAlpha" operator="out"/>
    <feColorMatrix type="matrix" values="0 0 0 0 0.866667 0 0 0 0 0.921569 0 0 0 0 0.964706 0 0 0 1 0"/>
    <feBlend mode="normal" in2="BackgroundImageFix" result="effect1_dropShadow_4991_10310"/>
    <feBlend mode="normal" in="SourceGraphic" in2="effect1_dropShadow_4991_10310" result="shape"/>
    </filter>
    <clipPath id="clip0_4991_10310">
    <rect width="100" height="100" fill="white" transform="translate(0.5)"/>
    </clipPath>
    </defs>
  </symbol>
  <svg id="download" width="24" height="24" viewBox="0 0 24 24" fill="none">
    <path d="M12 3V16M12 16L6 10.3478M12 16L18 10.3478" stroke="black" stroke-width="1.85" stroke-linecap="round" stroke-linejoin="round"/>
    <path d="M3 17V19C3 20.1046 3.89543 21 5 21H19C20.1046 21 21 20.1046 21 19V17" stroke="black" stroke-width="1.85" stroke-linecap="round" stroke-linejoin="round"/>
  </svg>
  <svg>
    <symbol id="underline" width="24" height="24" viewBox="0 0 24 24" fill="none" xmlns="http://www.w3.org/2000/svg">
      <path d="M22 21L2 21" stroke="var(--icon-stroke, #484848)" stroke-width="1.8" stroke-linecap="round"/>
      <path d="M7 3L7 11C7 13.7614 9.23858 16 12 16C14.7614 16 17 13.7614 17 11L17 3" stroke="var(--icon-stroke, #898989)" stroke-width="1.8" stroke-linecap="round"/>
    </symbol>

    <symbol id="strikethrough" viewBox="0 0 24 24" fill="none" xmlns="http://www.w3.org/2000/svg">
      <path d="M3 3H21" stroke="var(--icon-stroke, #898989)" stroke-width="1.8" stroke-linecap="round"/>
      <path d="M12 3L12 21" stroke="var(--icon-stroke, #898989)" stroke-width="1.8" stroke-linecap="round"/>
      <path d="M22 11L2 11" stroke="var(--icon-stroke, #484848)" stroke-width="1.8" stroke-linecap="round"/>
    </symbol>


  </svg>

</svg>
